<svg width="392" height="87" viewBox="0 0 392 87" fill="none" xmlns="http://www.w3.org/2000/svg">
<path d="M361.935 38.2316L380.784 10.3675C381.212 9.72301 381.861 8.87718 382.732 7.82996C383.42 6.93462 384.235 6.14483 385.152 5.48579C386.586 4.60904 388.238 4.15264 389.919 4.16871V2.85162H375.183V4.16871C375.995 4.22152 376.803 4.32239 377.602 4.47079C378.603 4.64801 379.212 4.99037 379.429 5.49787C379.592 5.90927 379.702 6.33966 379.756 6.77871C379.777 7.56229 379.602 8.33869 379.248 9.03829C379.011 9.50727 378.736 9.95588 378.425 10.3795L359.067 37.9295L338.765 10.3675C338.25 9.82562 337.773 9.24822 337.338 8.63954C336.822 8.01811 336.52 7.24673 336.479 6.44037C336.519 6.10277 336.631 5.77749 336.805 5.48579C337.338 4.60773 338.818 4.16871 341.246 4.16871V2.85162H323.206V4.16871C323.876 4.27343 324.763 4.44662 325.868 4.68829C326.665 4.81099 327.433 5.08147 328.131 5.48579C328.966 6.12557 329.736 6.846 330.429 7.63662C331.236 8.52274 331.829 9.21551 332.208 9.71496L353.55 38.2195C354.529 39.6725 355.048 41.3861 355.038 43.1375V77.5387C355.023 78.4076 354.958 79.275 354.845 80.1366C354.809 81.0005 354.466 81.8233 353.877 82.4566C352.695 83.158 351.33 83.4904 349.957 83.4112V84.7283H366.012V83.375C365.2 83.355 364.391 83.2742 363.592 83.1333C362.747 83.0599 361.961 82.6716 361.39 82.0458C360.989 81.4819 360.758 80.8152 360.725 80.1245C360.646 79.4586 360.602 78.7891 360.592 78.1187V43.6329C360.592 41.0229 361.031 39.2225 361.91 38.2316" fill="#0D0D0D"/>
<path d="M290.225 38.2316V11.8416C290.225 10.9958 290.346 9.85996 290.528 8.45829C290.591 7.3881 290.956 6.35754 291.58 5.48579C292.322 4.60773 293.895 4.16871 296.299 4.16871V2.85162H279.24V4.16871C279.796 4.27343 280.53 4.44662 281.442 4.68829C282.089 4.79919 282.697 5.07374 283.208 5.48579C283.854 6.19326 284.275 7.07644 284.418 8.02329C284.57 8.79616 284.659 9.58014 284.684 10.3675V77.5387C284.669 78.4076 284.604 79.275 284.49 80.1366C284.455 81.0005 284.112 81.8233 283.523 82.4566C282.34 83.158 280.975 83.4904 279.603 83.4112V84.7283H332.365L335.995 72.4516L334.192 73.092C333.66 74.099 332.885 75.4402 331.869 77.1158C331.245 78.3018 330.427 79.3757 329.449 80.2937C326.745 81.9813 323.584 82.7917 320.4 82.6137H295.633C294.822 82.593 294.013 82.5122 293.214 82.372C292.371 82.3006 291.586 81.917 291.012 81.2966C290.618 80.7203 290.388 80.0479 290.346 79.3512C290.268 78.6934 290.223 78.032 290.213 77.3695V38.2316H290.225Z" fill="#0D0D0D"/>
<path d="M197.573 4.32579C198.417 4.3567 199.244 4.57549 199.993 4.96621C201.275 5.84426 201.916 7.41107 201.916 9.66662V72.3066C201.916 73.7163 201.824 75.5691 201.638 77.865C201.453 80.1608 201.049 81.5705 200.428 82.0941C199.025 82.9974 197.377 83.4448 195.71 83.375V84.692H210.398V83.375C209.841 83.375 209.034 83.3347 207.978 83.2541C207.113 83.211 206.26 83.0358 205.449 82.7345C204.594 82.227 204.167 78.735 204.167 72.2583V7.44329L260.898 84.7766V9.88412C260.926 9.12546 261.036 8.372 261.224 7.63662C261.315 7.19796 261.492 6.7817 261.745 6.41233C261.998 6.04297 262.323 5.72794 262.701 5.48579C264.238 4.58228 265.998 4.12609 267.782 4.16871V2.85162H252.054V4.16871C252.699 4.2251 253.574 4.35398 254.679 4.55537C255.549 4.6741 256.378 4.9971 257.099 5.49787C257.751 6.06371 258.18 6.84351 258.309 7.69704C258.461 8.42095 258.55 9.15681 258.575 9.89621V71.9804L207.651 2.85162H195.032V4.16871C195.645 4.16871 196.492 4.22107 197.573 4.32579Z" fill="#0D0D0D"/>
<path d="M137.672 29.1933L132.832 14.6933C132.506 13.8354 132.094 12.5787 131.622 10.9112C131.176 9.58863 130.919 8.20951 130.86 6.815C130.853 6.36172 130.979 5.91624 131.223 5.53417C131.755 4.72861 133.772 4.32583 137.273 4.32583C140.773 4.32583 142.911 4.72861 143.685 5.53417C143.969 6.01899 144.084 6.58421 144.012 7.14125C143.994 8.65939 143.787 10.1694 143.395 11.6362C142.983 13.2474 142.64 14.4799 142.366 15.3337L137.672 29.1933ZM138.991 32.9875L144.556 15.2733C144.903 13.9925 145.484 12.2525 146.298 10.0533C146.822 8.33237 147.751 6.76194 149.008 5.47375C150.387 4.47549 152.079 4.00779 153.775 4.15667V2.85167H117.527V4.16875C118.217 4.25333 119.124 4.39833 120.225 4.61583C121.025 4.6939 121.785 5.00011 122.415 5.49792C123.286 6.5161 123.981 7.6717 124.472 8.9175C125.279 10.6333 125.859 11.9987 126.214 13.0137L135.058 38.2437L121.617 80.2937L99.8389 14.6208C99.5163 13.7669 99.113 12.5264 98.6291 10.8992C98.1837 9.5564 97.9351 8.15634 97.891 6.7425C97.895 6.28396 98.0069 5.83279 98.2177 5.42542C98.7742 4.54736 100.254 4.10833 102.658 4.10833V2.8275H84.534V4.10833C85.2236 4.19292 86.1431 4.35 87.2804 4.59167C88.0646 4.69172 88.8123 4.98213 89.4582 5.4375C90.3174 6.45725 91.0002 7.61297 91.4787 8.85708C92.2853 10.5971 92.866 11.9786 93.2209 13.0017L118.628 86.0696L122.935 83.375C124.105 79.5889 125.867 73.95 128.223 66.4583C130.578 58.9667 133.248 50.6292 136.232 41.4458L151.803 86.4683L156.074 83.9429L178.057 15.2854C178.535 13.517 179.104 11.7746 179.763 10.0654C180.283 8.33715 181.222 6.76397 182.498 5.48583C183.859 4.48194 185.543 4.01316 187.228 4.16875V2.85167H172.456V4.16875C173.267 4.18976 174.076 4.27054 174.875 4.41042C175.283 4.43906 175.68 4.549 176.043 4.73372C176.407 4.91845 176.73 5.1742 176.993 5.48583C177.235 5.70333 177.356 6.23903 177.356 7.09292C177.334 8.61155 177.123 10.1215 176.727 11.5879C176.315 13.199 175.976 14.4315 175.71 15.2854L154.719 80.8133L138.991 32.9875Z" fill="#A6CEBE"/>
<path d="M11.627 24.9158C13.6344 18.8555 17.2715 13.4632 22.1408 9.32829C26.9803 5.21996 33.1668 3.16579 40.7003 3.16579C45.7495 3.16579 50.9479 5.02663 56.2956 8.74829C61.8249 12.6459 66.3793 17.765 69.6042 23.7075C73.0559 29.7818 74.8655 36.6486 74.8551 43.6329C74.8852 50.1141 73.8638 56.5575 71.8304 62.7125C69.8584 68.703 66.1535 73.9757 61.1835 77.865C56.102 81.8927 49.2904 83.9066 40.7487 83.9066C34.9485 83.8764 29.3178 81.9495 24.7178 78.4208C19.5988 74.5958 15.5188 69.5531 12.8489 63.7516C9.90843 57.6784 8.38217 51.0193 8.38449 44.2733C8.38221 37.6937 9.47805 31.1597 11.627 24.94V24.9158ZM20.5679 7.10496C14.5559 11.0343 9.68278 16.472 6.43659 22.8737C3.49947 28.5359 1.78772 34.7519 1.41253 41.1178C1.03734 47.4837 2.0071 53.8573 4.25881 59.8245C6.12907 64.8665 8.90939 69.5231 12.4618 73.5633C15.941 77.5167 20.1945 80.7162 24.9598 82.9641C29.7749 85.2472 35.0436 86.4161 40.3736 86.3837C47.6933 86.4263 54.878 84.4168 61.1109 80.5837C67.4303 76.7811 72.6407 71.3898 76.2223 64.9479C79.8785 58.4964 81.7844 51.2031 81.7514 43.79C81.7912 36.3607 79.8851 29.0501 76.2223 22.5837C72.6457 16.1596 67.4486 10.7817 61.1472 6.98413C54.8997 3.15657 47.7027 1.15553 40.3736 1.20829C33.3313 1.16189 26.4353 3.21502 20.5679 7.10496Z" fill="#0D0D0D"/>
</svg>
